<?xml version="1.0" standalone="no"?>
<!DOCTYPE svg PUBLIC "-//W3C//DTD SVG 1.1//EN" "http://www.w3.org/Graphics/SVG/1.1/DTD/svg11.dtd" >
<!--
2013-9-30: Created.
-->
<svg>
<metadata>
Created by iconfont
</metadata>
<defs>

<font id="iconfont" horiz-adv-x="1024" >
  <font-face
    font-family="iconfont"
    font-weight="500"
    font-stretch="normal"
    units-per-em="1024"
    ascent="896"
    descent="-128"
  />
    <missing-glyph />
    
    <glyph glyph-name="fenxiang" unicode="&#58883;" d="M194.327273 221.88218199999994c11.776 64.325818 30.254545 121.809455 55.528727 172.590545 25.320727 50.734545 52.596364 90.763636 81.966545 119.947637a440.645818 440.645818 0 0 0 99.560728 74.24c37.050182 20.340364 69.818182 34.536727 98.443636 42.542545a508.509091 508.509091 0 0 0 89.088 16.477091c30.813091 2.932364 51.246545 4.189091 61.486546 3.816727 10.24-0.372364 18.618182-0.651636 24.110545-0.651636V872.96l278.388364-276.666182c13.218909-14.336 20.340364-25.786182 21.457454-34.257454 1.117091-8.517818-4.282182-19.456-16.058182-33.047273l-287.092363-248.738909V492.218182c-29.696 9.262545-60.602182 13.963636-91.741091 13.963636s-59.717818-3.816727-85.783273-11.450182c-26.065455-7.586909-52.270545-18.618182-78.661818-33.000727a552.96 552.96 0 0 1-70.423273-45.056c-20.573091-15.592727-40.913455-33.233455-61.021091-52.642909-20.154182-19.456-36.864-36.584727-50.082909-51.432727a619.054545 619.054545 0 0 1-37.376-46.312728c-11.776-16.104727-19.456-26.670545-23.086545-31.744-3.630545-5.073455-6.516364-9.262545-8.704-12.660363zM736.395636 80.98909100000003v119.296l72.610909 83.781818v-237.381818c0-36.398545-11.124364-67.770182-33.466181-93.649455s-49.152-38.958545-80.709819-38.958545H133.818182c-31.557818 0-58.647273 13.218909-80.989091 39.098182s-33.605818 57.111273-33.605818 93.556363V530.292364c0 36.445091 11.310545 67.118545 33.652363 93.044363 22.341818 25.879273 49.338182 38.446545 80.942546 38.446546h214.481454A369.431273 369.431273 0 0 1 250.414545 579.258182H127.208727a32.581818 32.581818 0 0 1-25.925818-11.776 43.287273 43.287273 0 0 1-10.565818-29.556364V39.09818199999995c0-11.031273 3.630545-20.805818 10.565818-28.951273a33.605818 33.605818 0 0 1 25.925818-12.427636H701.44c9.541818 0 17.687273 4.328727 24.622545 12.427636a43.287273 43.287273 0 0 1 10.333091 28.951273v41.890909z"  horiz-adv-x="1024" />

    
    <glyph glyph-name="dayin" unicode="&#58898;" d="M282.632696 896h471.126964a65.22293 65.22293 0 0 0 65.22293-65.22293v-235.019957H217.409766V830.77707a65.22293 65.22293 0 0 0 65.22293 65.22293zM217.409766 172.242887h601.572824V-62.77706999999998a65.22293 65.22293 0 0 0-65.22293-65.22293H282.632696a65.22293 65.22293 0 0 0-65.22293 65.22293V172.242887zM955.515924 604.453503h-69.353716v-59.570276a13.696815 13.696815 0 0 0-13.696815-13.479405H165.014013a13.696815 13.696815 0 0 0-13.696816 13.479405v59.570276H81.963482A81.963482 81.963482 0 0 1 0 522.4900210000001v-491.346072a81.963482 81.963482 0 0 1 81.963482-81.963482h69.353715V225.50828a13.696815 13.696815 0 0 0 13.696816 13.696816h707.45138a13.696815 13.696815 0 0 0 13.696815-13.696816v-276.327813h69.353716a81.963482 81.963482 0 0 1 81.963482 81.963482v491.346072a81.963482 81.963482 0 0 1-81.963482 81.963482z m-69.353716-214.14862a13.696815 13.696815 0 0 0-13.696815-13.696815H673.970276a13.696815 13.696815 0 0 0-13.696815 13.696815v56.743949a13.696815 13.696815 0 0 0 13.696815 13.696816h198.495117a13.696815 13.696815 0 0 0 13.696815-13.696816z"  horiz-adv-x="1037" />

    
    <glyph glyph-name="favorite" unicode="&#59000;" d="M323.38461538 720.46153846a198.77948718 198.77948718 0 0 0 141.27179488-58.38974359l0.61538461-0.63589743 43.86666667-46.9948718 1.34358974 1.33333333 0.05128205-0.05128205L552.6974359 657.8461538500001l2.97435897 2.97435897 0.64615385 0.65641026a200.1025641 200.1025641 0 0 0 282.99487179-282.94358975l-0.59487179-0.58461538-43.43589744-43.44615385-284.51282051-284.52307692-282.9948718 282.99487179 0.20512821 0.20512821-45.36410256 44.96410256-0.96410257 0.94358975A200.1025641 200.1025641 0 0 0 323.38461538 720.46153846m0 63.58974359a262.87179487 262.87179487 0 0 1-186.46153846-77.23076923c-102.97435897-102.97435897-102.97435897-269.93846154 0-372.92307692l0.93333334-0.91282052 334.08205128-334.09230769a54.92307692 54.92307692 0 0 1 77.66153846 0L883.69230769 332.97435897l0.30769231 0.30769231c102.97435897 102.97435897 102.97435897 269.93846154 0 372.92307693a263.69230769 263.69230769 0 0 1-372.92307692 0l-0.30769231-0.30769231-0.91282051 0.93333333a262.87179487 262.87179487 0 0 1-186.46153847 77.23076923z"  horiz-adv-x="1024" />

    
    <glyph glyph-name="favoriteon" unicode="&#58904;" d="M8.75213641 909.12820513v-1050.25641026M30.63247897 909.12820513v-1050.25641026M52.51282051 909.12820513v-1050.25641026M74.39316205 909.12820513v-1050.25641026M96.27350462 909.12820513v-1050.25641026M118.15384615 909.12820513v-1050.25641026M140.03418769 909.12820513v-1050.25641026M161.91453026 909.12820513v-1050.25641026M183.79487179 909.12820513v-1050.25641026M205.67521333 909.12820513v-1050.25641026M227.5555559 909.12820513v-1050.25641026M249.43589744 909.12820513v-1050.25641026M271.31623897 909.12820513v-1050.25641026M293.19658154 909.12820513v-1050.25641026M315.07692308 909.12820513v-1050.25641026M336.95726462 909.12820513v-1050.25641026M358.83760718 909.12820513v-1050.25641026M380.71794872 909.12820513v-1050.25641026M402.59829026 909.12820513v-1050.25641026M424.47863282 909.12820513v-1050.25641026M446.35897436 909.12820513v-1050.25641026M468.2393159 909.12820513v-1050.25641026M490.11965846 909.12820513v-1050.25641026M512 909.12820513v-1050.25641026M533.88034154 909.12820513v-1050.25641026M555.7606841 909.12820513v-1050.25641026M577.64102564 909.12820513v-1050.25641026M599.52136718 909.12820513v-1050.25641026M621.40170974 909.12820513v-1050.25641026M643.28205128 909.12820513v-1050.25641026M665.16239282 909.12820513v-1050.25641026M687.04273538 909.12820513v-1050.25641026M708.92307692 909.12820513v-1050.25641026M730.80341846 909.12820513v-1050.25641026M752.68376103 909.12820513v-1050.25641026M774.56410256 909.12820513v-1050.25641026M796.4444441 909.12820513v-1050.25641026M818.32478667 909.12820513v-1050.25641026M840.20512821 909.12820513v-1050.25641026M862.08546974 909.12820513v-1050.25641026M883.96581231 909.12820513v-1050.25641026M905.84615385 909.12820513v-1050.25641026M927.72649538 909.12820513v-1050.25641026M949.60683795 909.12820513v-1050.25641026M971.48717949 909.12820513v-1050.25641026M993.36752103 909.12820513v-1050.25641026M1015.24786359 909.12820513v-1050.25641026M-13.12820513 887.24786359h1050.25641026M-13.12820513 865.36752103h1050.25641026M-13.12820513 843.48717949h1050.25641026M-13.12820513 821.60683795h1050.25641026M-13.12820513 799.72649538h1050.25641026M-13.12820513 777.84615385h1050.25641026M-13.12820513 755.96581231h1050.25641026M-13.12820513 734.08546974h1050.25641026M-13.12820513 712.20512821h1050.25641026M-13.12820513 690.32478667h1050.25641026M-13.12820513 668.4444441h1050.25641026M-13.12820513 646.56410256h1050.25641026M-13.12820513 624.68376103h1050.25641026M-13.12820513 602.80341846h1050.25641026M-13.12820513 580.9230769200001h1050.25641026M-13.12820513 559.0427353800001h1050.25641026M-13.12820513 537.1623928199999h1050.25641026M-13.12820513 515.28205128h1050.25641026M-13.12820513 493.40170974h1050.25641026M-13.12820513 471.52136718h1050.25641026M-13.12820513 449.64102564h1050.25641026M-13.12820513 427.7606841h1050.25641026M-13.12820513 405.88034154h1050.25641026M-13.12820513 384h1050.25641026M-13.12820513 362.11965846h1050.25641026M-13.12820513 340.23931589999995h1050.25641026M-13.12820513 318.35897436000005h1050.25641026M-13.12820513 296.47863282000003h1050.25641026M-13.12820513 274.59829026h1050.25641026M-13.12820513 252.71794871999998h1050.25641026M-13.12820513 230.83760717999996h1050.25641026M-13.12820513 208.95726462000005h1050.25641026M-13.12820513 187.07692308000003h1050.25641026M-13.12820513 165.19658154h1050.25641026M-13.12820513 143.31623896999997h1050.25641026M-13.12820513 121.43589743999996h1050.25641026M-13.12820513 99.55555589999994h1050.25641026M-13.12820513 77.67521333000002h1050.25641026M-13.12820513 55.79487179h1050.25641026M-13.12820513 33.91453025999999h1050.25641026M-13.12820513 12.034187689999953h1050.25641026M-13.12820513-9.84615384999995h1050.25641026M-13.12820513-31.72649537999996h1050.25641026M-13.12820513-53.60683795h1050.25641026M-13.12820513-75.48717949000002h1050.25641026M-13.12820513-97.36752103000003h1050.25641026M-13.12820513-119.24786358999995h1050.25641026M512-24.205128209999998l-63.58974359 57.43589744c-225.64102564 205.12820513-373.33333333 338.46153846-373.33333333 504.61538462C75.07692308 673.23076923 179.69230769 777.84615385 315.07692308 777.84615385c75.8974359 0 149.74358974-36.92307692 196.92307692-92.30769231C559.17948718 740.92307692 633.02564103 777.84615385 708.92307692 777.84615385c135.38461538 0 240-104.61538462 240-240 0-166.15384615-147.69230769-301.53846154-373.33333333-506.66666667z"  horiz-adv-x="1024" />

    
    <glyph glyph-name="shoucangon" unicode="&#58899;" d="M769.58179167-77.39548610999998c-11.543125 0.4945-22.75658333 3.29858333-32.98008334 8.57516667l-225.25625 112.628125-226.90554166-112.46329167c-23.25204167-12.20245833-51.45004167-10.2235-72.72216667 5.11175-21.43791667 15.99554167-32.15591667 42.874875-27.7035 69.25875l46.667 242.57141667-178.42441667 166.38583333c-18.79866667 19.12929167-26.05420833 46.83375-19.29316666 72.723125 7.91583333 26.05420833 30.17791667 45.01770833 57.221125 48.481125l247.848 45.18254167 110.97883333 225.25625C460.71958333 830.39247223 484.79579167 845.72868056 511.51125 846.2222222299999c26.878375 0 51.11941667-15.50104167 62.49770833-39.90595834l110.814-225.25625 247.68316667-43.37033333c26.54966667-3.62729167 48.31629167-22.755625 55.407-48.481125 8.57516667-25.55875 1.814125-53.75770833-17.31420833-72.72120833L792.17354167 248.28643055999999l45.01866666-242.57141667c4.78208333-26.54870833-5.936875-53.42708333-27.7035-69.25875a62.49770833 62.49770833 0 0 0-39.90691666-13.85175z"  horiz-adv-x="1024" />

    
    <glyph glyph-name="shoucang" unicode="&#59189;" d="M767.77305624-67.52549594000004c-13.20068483 0-28.0382093 3.78460027-41.79333834 10.66689479L529.57411246 41.37731702999997 331.95270436-56.699648170000046a89.36292342 89.36292342 0 0 0-94.19585784 7.10464048c-27.65785754 20.75001637-41.83023841 56.68763188-35.29139556 89.41779997l40.42142064 209.67725168L87.96805288 393.88821391a95.37192158 95.37192158 0 0 0-24.08708766 92.25814249l0.30939126 1.06536434c11.25918532 33.75390189 39.20183377 57.40481408 73.0787348 61.94254951l215.23777551 39.13560286L449.11351465 784.5005717500001c15.52253702 31.06210515 47.08231722 51.02587046 80.4605978 51.02587047 34.81832086 0 67.1984125-20.71406254 80.77377328-51.59166809l96.29820199-195.58813194 215.27089051-37.63690093a87.68634492 87.68634492 0 0 0 71.73141747-62.66635472 90.70929448 90.70929448 0 0 0-22.43132446-92.57131795l-0.5298438-0.53079009-154.48075158-145.46961908 39.04287995-210.05192673c6.28716695-33.58832592-7.07152546-67.52294233-34.88549718-88.66750276a82.86287231 82.86287231 0 0 0-52.59080239-18.27867216zM529.64885803 112.16542303000006l208.66392509-104.3499399c6.12821399-3.08917961 13.19027765-5.03068002 18.02321118-5.03067914 7.43863124 0 14.34552699 2.29062882 19.41878298 6.52275804l0.94615029 0.77868179c11.8571517 8.89381005 17.63907522 23.03591473 15.04378558 36.87903532l-41.99013764 226.20365348 166.08528199 156.40711342a37.88668518 37.88668518 0 0 1 9.16062449 38.75619734l-0.45509824 1.43152475a34.19575412 34.19575412 0 0 1-28.38450066 24.74939243l-0.94615029 0.14949205-229.81700105 40.177314L561.96745013 744.92595551c-5.02121821 11.73226004-18.64861672 20.25328758-32.40752995 20.25328667-13.51859166 0-26.45246208-8.46520383-33.00360554-21.53532025L393.78739239 534.9345820799999l-231.02334278-41.97026864c-14.03235067-1.75983874-24.9319995-11.07941707-29.9674091-25.6122816-3.57550119-13.28016177 0.66230476-29.2823965 10.42278818-39.25860289L309.49867208 273.14717195000003l-43.63643904-226.31908512c-2.62367418-13.08809293 3.57455494-28.15080125 15.04378555-36.75319736a35.03688173 35.03688173 0 0 1 21.00453022-6.7053651 35.38601104 35.38601104 0 0 1 16.76672424 4.07885299l0.71718133 0.42198321 210.25534992 104.29506246z"  horiz-adv-x="1063" />

    
    <glyph glyph-name="menu" unicode="&#58947;" d="M996.51789236 672.1934375L806.21179861 862.50146875c-26.24925 26.24925-68.90428125 26.24925-95.15353125 0L522.93767361 672.1944062499999c-26.24828125-26.24925-26.24828125-68.90428125 0-95.15353125L712.15198611 387.8265625c26.24925-26.24828125 68.90428125-26.24828125 95.15353125 0l189.212375 190.3070625c25.15553125 26.24925 25.15553125 68.90428125 0 94.0598125zM759.18189236 435.952125L569.96854861 625.1645 759.18189236 814.376875 948.39329861 625.1645 759.18189236 435.95115625zM364.35039236 818.75271875H85.45307986C48.26664236 818.75175 23.11111111 796.877375 23.11111111 759.6909375v-281.08475c0-37.1864375 25.15553125-62.34196875 62.34196875-62.34196875h278.8973125c37.1864375 0 62.34196875 25.15553125 62.34196875 62.34196875V757.5035c0 37.1864375-25.15553125 61.24825-62.34196875 61.24825z m0-527.17146875H85.45307986C48.26664236 291.58124999999995 23.11111111 259.86340625 23.11111111 222.67696875000001v-267.960125C23.11111111-82.46959374999994 52.64151736-112 89.82795486-112h267.960125c37.1864375 0 68.90428125 25.15553125 68.90428125 62.34196875V229.23928124999998c0 37.1864375-31.71784375 61.24825-68.90428125 61.24825l6.5623125 1.09371875z m465.92321875 0H612.62454861c-37.18740625 0-62.3429375-25.15553125-62.3429375-62.34196875v-278.8973125c0-37.1864375 37.1864375-62.34196875 74.372875-62.34196875h267.960125c37.1864375 0 61.24825 25.15553125 61.24825 62.34196875V229.23928124999998c0 37.1864375-25.15553125 62.34196875-62.34196875 62.34196875H830.27361111z"  horiz-adv-x="1025" />

    
    <glyph glyph-name="wo" unicode="&#59324;" d="M812.96-92.63999999999999H211.04c-55.2 0-100.32 45.12-100.32 100.32 0 180 145.92 325.92 325.92 325.92h150.24c180 0 325.92-145.92 325.92-325.92 0.48-55.68-44.64-100.32-99.84-100.32z m-225.6 375.84H436.64c-152.16 0-276-123.36-276-276 0-27.84 22.56-49.92 49.92-49.92h601.92c27.84 0 49.92 22.56 49.92 49.92 0.48 152.64-122.88 276-275.04 276zM512 358.55999999999995c-138.72 0-250.56 112.32-250.56 250.56S373.28 860.16 512 860.16s250.56-112.32 250.56-250.56-111.84-251.04-250.56-251.04z m0 451.2C401.12 809.76 311.36 720 311.36 609.6S401.12 408.96 512 408.96s200.64 89.76 200.64 200.64-89.76 200.16-200.64 200.16z"  horiz-adv-x="1024" />

    
    <glyph glyph-name="rexian" unicode="&#58950;" d="M126.917486 239.440457c55.530057-110.767543 143.711086-181.423543 259.218285-219.106743 52.955429 53.540571 122.528914 68.725029 181.277258 34.669715 18.900114-10.8544 40.7552-35.898514 40.842971-54.506058 0.058514-18.578286-21.7088-43.6224-40.521143-54.740114-56.495543-33.557943-125.864229-20.362971-172.587886 25.775543-7.460571 7.3728-18.314971 12.258743-28.4672 15.798857-119.895771 41.281829-211.295086 116.092343-272.1792 228.000914a60.971886 60.971886 0 0 1-27.823542 24.956343C30.544457 255.531886 11.234743 280.634514 11.498057 320.3072c0.263314 40.462629-2.6624 81.217829 1.258057 121.329371 2.048 20.597029 10.795886 46.928457 25.863315 58.368 21.7088 16.501029 30.456686 36.688457 39.233828 59.362743 71.387429 184.437029 262.933943 305.7664 460.302629 291.693715 210.300343-14.9504 354.9184-118.608457 429.114514-317.586286 2.954971-7.694629 8.250514-16.384 15.008914-20.392229 31.714743-18.929371 42.8032-46.723657 41.662172-82.3296-1.199543-38.122057 0.4096-76.478171-0.497372-114.629485-1.053257-46.811429-36.2496-80.164571-82.300343-79.550172-44.792686 0.6144-78.058057 33.089829-79.023542 78.935772-0.848457 42.773943-1.784686 85.6064 0.6144 128.175542 0.994743 16.822857 6.992457 36.688457 17.876114 48.683886 13.253486 14.599314 12.258743 26.243657 6.641371 41.486629-53.891657 145.349486-204.682971 246.403657-368.8448 247.047314-163.4304 0.643657-315.304229-100.322743-369.810285-245.408914-6.231771-16.5888-7.226514-28.584229 7.314285-44.061257 26.858057-28.642743 25.6-192.980114 0.848457-224.021943-7.5776-9.567086-17.846857-16.910629-29.842285-27.969829zM353.0752 285.930057c110.738286-96.636343 218.9312-96.577829 328.850286 0 8.426057-28.584229 5.266286-46.986971-19.573029-64.014628a255.7952 255.7952 0 0 0-287.305143-1.609143c-24.576 16.501029-31.188114 34.786743-21.972114 65.623771zM423.438629 476.481829c-1.375086-30.339657-27.560229-52.779886-59.333486-50.731886-28.935314 1.8432-54.535314 27.940571-53.686857 54.710857 0.936229 28.730514 28.818286 53.277257 59.392 52.311771 32.416914-0.994743 55.032686-24.751543 53.628343-56.290742zM663.581257 425.749943c-31.831771 1.960229-54.330514 27.2384-51.8144 58.221714 2.399086 30.3104 29.0816 51.6096 61.088914 48.713143 29.198629-2.603886 53.950171-29.4912 51.8144-56.261486-2.311314-28.847543-30.866286-52.604343-61.088914-50.673371z"  horiz-adv-x="1024" />

    
    <glyph glyph-name="women" unicode="&#59008;" d="M897.3 268.8c-33.4 48.2-78.5 84.4-130.9 105.3 23.2 16.3 42.6 37.9 56.6 63.3 16.3 29.3 24.9 62.8 24.9 96.7 0 106.1-82.1 192.4-183.1 192.4-14.4 0-26-11.7-26-26 0-14.4 11.7-26 26-26 72.3 0 131.1-62.9 131.1-140.4S737 393.8 664.7 393.8c-14.4 0-26-11.7-26-26v-0.1c0-14.4 11.7-26 26-26 130 0 235.7-112.8 235.7-251.4 0-14.4 11.7-26 26-26 14.4 0 26 11.7 26 26 0.2 64.6-19 126.3-55.1 178.5M628.5 313c-27.3 19.3-57 34.6-88.4 45.5 66.3 40.3 107.1 112 107.1 190 0 122.6-99.7 222.4-222.4 222.4s-222.4-99.7-222.4-222.4c0-41.7 11.7-82.5 33.8-117.7 18.6-29.8 44.2-54.8 74.2-72.9-32-10.9-62.3-26.4-89.9-46-30.2-21.4-56.7-47.3-79-76.8-46.1-61.4-70.4-134.7-70.4-211.6 0-14.4 11.7-26 26-26 14.4 0 26 11.7 26 26 0 80.3 31.3 155.8 88.1 212.9 56.7 56.9 131.7 88.3 211.2 88.3 2.6-0.3 5.3 0 7.9 0.5l2.1 0.5c77.4-1.6 150.2-32.8 205.5-88.3 56.9-57 88.1-132.6 88.1-212.9 0-14.4 11.7-26 26-26 14.4 0 26 11.7 26 26 0 76.9-24.3 150.1-70.6 211.6-22.1 29.6-48.8 55.5-78.9 76.9M424.9 718.7c93.9 0 170.3-76.4 170.3-170.3s-76.4-170.3-170.3-170.3-170.3 76.4-170.3 170.3S331 718.7 424.9 718.7z"  horiz-adv-x="1024" />

    
    <glyph glyph-name="laba" unicode="&#58951;" d="M992.768 737.331C963.174 826.163 923.853 844.8 896.051 844.8c-0.563 0-1.177 0-1.792-0.051-28.313-0.615-78.643-15.309-154.01-37.427-157.9-46.234-396.492-116.173-637.849-116.173-58.368 0-102.4-77.056-102.4-179.2s44.032-179.2 102.4-179.2c18.893 0 37.786-0.41 56.576-1.229l85.3-339.354c9.727-38.707 48.588-69.017 88.524-69.017h67.226c22.17 0 41.01 9.216 51.61 25.344s11.724 37.017 3.071 57.395L322.765 315.546c160.563-23.655 308.326-66.97 417.485-98.919 75.366-22.067 125.696-36.813 154.01-37.427 0.614 0 1.177-0.051 1.791-0.051 27.75 0 67.072 18.637 96.717 107.469 20.173 60.57 31.283 140.595 31.283 225.33s-11.11 164.762-31.283 225.332zM819.251 512c0 26.266 1.127 51.968 3.277 76.595 26.266-2.662 47.923-36.659 47.923-76.595s-21.606-73.984-47.923-76.595c-2.15 24.627-3.277 50.33-3.277 76.595z m-768 0c0 78.131 30.31 128 51.2 128 58.112 0 115.917 3.891 172.442 10.445-12.135-38.81-18.842-86.887-18.842-138.445s6.656-99.635 18.842-138.445C218.368 380.11 160.563 384 102.45 384c-20.89 0-51.2 49.869-51.2 128z m356.403-526.131c2.1-4.915 1.946-8.192 1.332-9.114s-3.533-2.355-8.91-2.355h-67.225c-16.333 0-34.867 14.438-38.86 30.31l-81.306 323.533c17.152-1.382 34.253-3.02 51.2-4.966l143.77-337.408z m-75.366 380.057c-15.565 35.175-25.037 89.498-25.037 146.074 0 57.446 9.216 110.746 24.986 146.022 163.072 24.218 312.115 67.84 422.4 100.199 21.248 6.246 41.523 12.185 59.955 17.357-5.274-11.008-10.394-23.706-15.258-38.247-20.172-60.57-31.283-140.595-31.283-225.331s11.11-164.762 31.283-225.331c4.864-14.541 9.984-27.239 15.258-38.247-18.432 5.172-38.707 11.11-59.955 17.357-110.336 32.307-259.328 75.981-422.4 100.199z m611.891-63.078c-19.097-57.344-39.833-72.448-48.128-72.448s-29.03 15.155-48.128 72.448c-8.038 24.064-14.49 51.66-19.2 81.715 24.883 2.867 48.282 16.947 65.331 39.68C911.872 448 921.651 479.181 921.651 512s-9.83 64.051-27.597 87.757c-17.05 22.733-40.448 36.813-65.33 39.68 4.76 30.003 11.212 57.651 19.2 81.715 19.097 57.344 39.833 72.5 48.127 72.5s29.03-15.156 48.128-72.449c18.483-55.5 28.672-129.74 28.672-209.152S962.662 358.4 944.18 302.9z"  horiz-adv-x="1025" />

    
    <glyph glyph-name="kefu" unicode="&#58880;" d="M705.3 384.8c0 17.7-14.3 32-32 32s-32-14.3-32-32c0-34.4-13.4-66.7-37.7-91-24.3-24.3-56.6-37.7-91-37.7s-66.7 13.4-91 37.7c-24.3 24.3-37.7 56.6-37.7 91 0 17.7-14.3 32-32 32s-32-14.3-32-32c0-106.4 86.3-192.7 192.7-192.7 106.4 0 192.7 86.3 192.7 192.7zM961.2 564H958.4C901.1 756 723.2 896 512.6 896 302 896 124 756 66.8 564h-2.8c-35.2 0-64-28.8-64-64v-190c0-35.2 28.8-64 64-64h59.2c35.2 0 64 28.8 64 64V500c0 31.6-23.2 58-53.4 63.1 2.8 8 5.9 16 9.2 23.9 20.2 47.8 49.1 90.7 86 127.5 36.9 36.9 79.8 65.8 127.5 86C405.9 821.4 458.4 832 512.6 832c54.2 0 106.7-10.6 156.1-31.5 47.8-20.2 90.7-49.1 127.5-86 36.9-36.9 65.8-79.8 86-127.5 3.3-7.9 6.4-15.9 9.2-23.9-30.2-5.1-53.4-31.5-53.4-63.1v-190c0-24.5 14-45.9 34.4-56.7-19.4-39.2-44.9-74.8-76.1-106.1-36.9-36.9-79.8-65.8-127.5-86-8.9-3.8-18-7.2-27.1-10.3-18 54-68.9 93-129 93-75 0-135.9-60.8-135.9-135.9s60.8-135.9 135.9-135.9c67.3 0 123.2 49 134 113.3C778.3 25 885.4 121.3 939.5 246h21.7c35.2 0 64 28.8 64 64V500c0 35.2-28.8 64-64 64z m-838-253.9l-0.1-0.1h-59l-0.1 0.1V499.9l0.1 0.1h59l0.1-0.1v-189.8z m389.4-374c-39.6 0-71.9 32.2-71.9 71.9s32.2 71.9 71.9 71.9c39.6 0 71.9-32.2 71.9-71.9s-32.3-71.9-71.9-71.9z m448.6 374l-0.1-0.1h-59l-0.1 0.1V499.9l0.1 0.1h59l0.1-0.1v-189.8z"  horiz-adv-x="1025" />

    
    <glyph glyph-name="paimai" unicode="&#58939;" d="M912.133333 792c2.133333 0 6.133333-0.533333 9.466667-3.866667l28.266667-28.266666 147.066666-147.066667 28.266667-28.266667c3.333333-3.333333 3.866667-7.333333 3.866667-9.466666s-0.533333-6.133333-3.866667-9.466667L1096.933333 537.333333l-1.6-1.6-26.666666-26.666666c-3.333333-3.333333-7.333333-3.866667-9.466667-3.866667-2.266667 0-4.533333 0.533333-6.533333 1.6l-1.6 0.933333-22.4 22.4-7.2 7.2-147.066667 147.2-6.533333 6.533334-23.066667 23.066666-0.933333 1.6c-2.533333 4.4-2.666667 11.333333 2.133333 16.133334l28.266667 28.266666L902.666667 788.266667c3.333333 3.333333 7.333333 3.733333 9.466666 3.733333M574 453.866667c2.4 0 4.666667-0.533333 6.666667-1.733334l1.6-0.933333 23.066666-23.066667 160.666667-160.666666 22.4-22.4 0.933333-1.6c2.266667-4.266667 2.666667-11.066667-2.133333-15.866667l-28.266667-28.266667-28.266666-28.266666c-3.333333-3.333333-7.333333-3.866667-9.466667-3.866667-2.133333 0-6.133333 0.533333-9.466667 3.866667l-28.266666 28.266666-147.2 147.066667L508 374.66666699999996c-5.066667 5.066667-5.066667 13.733333 0 18.8l28.266667 28.266666 28.266666 28.266667c3.333333 3.333333 7.333333 3.866667 9.466667 3.866667m393.2-51.066667l25.6-25.6 25.333333-25.333333 266.4-266.4 29.466667-29.466667c3.333333-3.333333 3.866667-7.333333 3.866667-9.466667s-0.533333-6.133333-3.866667-9.466666l-29.466667-29.466667-29.466666-29.466667c-3.333333-3.333333-7.333333-3.866667-9.466667-3.866666s-6.133333 0.533333-9.466667 3.866666L1206.666667 7.600000000000023l-3.333334 3.333333L943.466667 270.66666699999996l-3.333334 3.333333-29.2 29.2c-0.133333 0.266667-0.4 0.4-0.533333 0.666667L889.733333 325.33333300000004l77.466667 77.466667M912.133333 838.666667c-15.333333 0-30.8-5.866667-42.4-17.466667l-28.266666-28.266667-28.266667-28.266666c-19.466667-19.466667-22.666667-49.2-9.733333-72.133334L603.6 492.8c-9.2 5.2-19.466667 7.733333-29.733333 7.733333-15.333333 0-30.8-5.866667-42.4-17.466666l-28.266667-28.266667-28.266667-28.266667c-23.333333-23.333333-23.333333-61.466667 0-84.8l28.266667-28.266666 147.066667-147.066667 28.266666-28.266667c11.733333-11.733333 27.066667-17.466667 42.4-17.466666s30.8 5.866667 42.4 17.466666l28.266667 28.266667 28.266667 28.266667c19.2 19.2 22.533333 48.533333 10.133333 71.2l26.133333 26.133333 20.533334-20.533333c0.266667-0.266667 0.533333-0.533333 0.8-0.933334l29.466666-29.466666L1173.333333-25.33333300000004l29.466667-29.466667c11.733333-11.733333 27.066667-17.466667 42.4-17.466667s30.8 5.866667 42.4 17.466667l29.466667 29.466667 29.466666 29.466666c23.333333 23.333333 23.333333 61.466667 0 84.8l-29.466666 29.466667-265.866667 266.533333-25.333333 25.333334-25.6 25.6 30.133333 30.133333c8.933333-4.933333 18.933333-7.333333 28.8-7.333333 15.333333 0 30.8 5.866667 42.4 17.466666l28.266667 28.266667 28.266666 28.266667c23.333333 23.333333 23.333333 61.466667 0 84.8l-28.266666 28.266666L982.8 792.933333l-28.266667 28.266667c-11.6 11.733333-27.066667 17.466667-42.4 17.466667z m-113.2-538.133334L638.133333 461.333333l196.8 196.8 6.533334-6.533333 147.066666-147.066667 7.2-7.2-196.8-196.8zM1016.666667-25.46666700000003H563.6c-12.8 0-23.2-10.4-23.2-23.2 0-12.8 10.4-23.2 23.2-23.2h453.066667c12.8 0 23.2 10.4 23.2 23.2 0 12.8-10.533333 23.2-23.2 23.2z"  horiz-adv-x="1821" />

    
    <glyph glyph-name="bianji" unicode="&#58920;" d="M683.52 538.9963640000001a23.272727 23.272727 0 0 0-16.523636 6.981818l-123.810909 125.905454a23.272727 23.272727 0 0 0 0 33.047273L642.792727 802.909091A23.272727 23.272727 0 0 0 674.909091 802.909091l123.810909-125.905455a23.272727 23.272727 0 0 0 0-32.814545l-99.374545-97.978182a23.272727 23.272727 0 0 0-15.825455-7.214545z m-90.996364 148.945454l91.461819-93.090909 66.327272 65.163636-91.461818 93.09091zM122.414545 116.13090899999997a23.272727 23.272727 0 0 0-21.410909 32.116364l86.109091 209.454545a25.367273 25.367273 0 0 0 5.352728 7.68l282.065454 276.945455a26.763636 26.763636 0 0 0 16.523636 6.516363 23.272727 23.272727 0 0 0 16.29091-6.981818l123.810909-125.905454a23.272727 23.272727 0 0 0 0-32.814546L349.090909 205.49818200000004a25.134545 25.134545 0 0 0-7.912727-4.887273l-209.454546-82.850909a21.876364 21.876364 0 0 0-9.309091-1.629091z m106.123637 218.763636l-63.534546-153.832727 154.763637 60.974546L581.818182 500.363636l-91.229091 93.090909zM330.007273 201.54181800000003a23.272727 23.272727 0 0 0-16.523637 6.981818l-117.527272 119.389091A23.272727 23.272727 0 0 0 229.236364 360.72727299999997l117.527272-119.389091a23.272727 23.272727 0 0 0 0-32.814546 23.272727 23.272727 0 0 0-16.756363-6.981818zM814.545455 174.54545499999995H465.454545a23.272727 23.272727 0 0 0 0 46.545454h349.09091a23.272727 23.272727 0 0 0 0-46.545454zM814.545455 34.90909099999999H139.636364a23.272727 23.272727 0 0 0 0 46.545454h674.909091a23.272727 23.272727 0 0 0 0-46.545454z"  horiz-adv-x="1024" />

    
    <glyph glyph-name="rili" unicode="&#58909;" d="M960.32125466 2.258824000000004c0-28.129882-23.491765-50.989176-52.404706-50.989177h-786.070588c-28.882824 0-52.404706 22.859294-52.404706 50.989177V512.120471h890.88v-509.891765z m-890.88 713.788235c0 28.129882 23.521882 50.989176 52.404706 50.989176H279.09019566v-50.989176c0-14.064941 11.745882-25.479529 26.202353-25.47953 14.486588 0 26.202353 11.414588 26.202353 25.47953V767.036235h366.832941v-50.989176c0-14.064941 11.745882-25.479529 26.202353-25.47953s26.202353 11.414588 26.202353 25.47953V767.036235h157.214118c28.912941 0 52.404706-22.889412 52.404706-50.989176v-152.937412H69.44125466V716.047059z m838.475294 101.978353h-157.214117V869.014588a25.840941 25.840941 0 0 1-26.202353 25.47953c-14.456471 0-26.202353-11.414588-26.202353-25.47953v-50.989176H331.49490166V869.014588A25.840941 25.840941 0 0 1 305.29254866 894.494118c-14.456471 0-26.202353-11.414588-26.202353-25.47953v-50.989176H121.87607866C64.11043166 818.025412 17.06666666 772.306824 17.06666666 716.047059v-713.788235c0-56.259765 46.983529-101.978353 104.809412-101.978353h786.04047c57.795765 0 104.809412 45.718588 104.809412 101.978353v713.788235c0 56.259765-47.013647 101.978353-104.809412 101.978353zM488.70901966 53.24800000000005h52.404706c9.336471 0 17.980235 4.818824 22.678588 12.739765a24.877176 24.877176 0 0 1 0 25.479529 26.352941 26.352941 0 0 1-22.708706 12.739765h-52.404706a26.352941 26.352941 0 0 1-22.678588-12.739765 24.907294 24.907294 0 0 1 0-25.479529 26.352941 26.352941 0 0 1 22.678588-12.739765m209.618824 0h52.404706c9.336471 0 18.010353 4.818824 22.678588 12.739765a24.907294 24.907294 0 0 1 0 25.479529 26.352941 26.352941 0 0 1-22.678588 12.739765h-52.404706a26.352941 26.352941 0 0 1-22.678588-12.739765 24.907294 24.907294 0 0 1 0-25.479529 26.352941 26.352941 0 0 1 22.678588-12.739765m-419.237647 0h52.404706c9.366588 0 18.040471 4.818824 22.708706 12.739765a24.907294 24.907294 0 0 1 0 25.479529 26.352941 26.352941 0 0 1-22.678589 12.739765H279.09019566a26.352941 26.352941 0 0 1-22.708705-12.739765 24.877176 24.877176 0 0 1 0-25.479529 26.352941 26.352941 0 0 1 22.708705-12.739765m209.618824 152.937412h52.404706c9.336471 0 17.980235 4.879059 22.678588 12.739764a24.877176 24.877176 0 0 1 0 25.509648 26.322824 26.322824 0 0 1-22.708706 12.739764h-52.404706a26.352941 26.352941 0 0 1-22.678588-12.739764 24.907294 24.907294 0 0 1 0-25.509648 26.352941 26.352941 0 0 1 22.678588-12.739764m209.618824 0h52.404706c9.336471 0 18.010353 4.879059 22.678588 12.739764a24.907294 24.907294 0 0 1 0 25.509648 26.352941 26.352941 0 0 1-22.678588 12.739764h-52.404706a26.322824 26.322824 0 0 1-22.678588-12.739764 24.907294 24.907294 0 0 1 0-25.509648 26.352941 26.352941 0 0 1 22.678588-12.739764m-419.237647 0h52.404706c9.366588 0 18.040471 4.879059 22.708706 12.739764a24.907294 24.907294 0 0 1 0 25.509648 26.352941 26.352941 0 0 1-22.678589 12.739764H279.09019566a26.322824 26.322824 0 0 1-22.708705-12.739764 24.877176 24.877176 0 0 1 0-25.509648 26.352941 26.352941 0 0 1 22.708705-12.739764m209.618824 152.967529h52.404706c14.456471 0 26.202353 11.414588 26.202353 25.47953a25.840941 25.840941 0 0 1-26.202353 25.509647h-52.404706c-14.486588 0-26.202353-11.444706-26.202353-25.509647 0-14.064941 11.715765-25.479529 26.202353-25.47953m209.618823 0h52.374589c14.456471 0 26.202353 11.414588 26.202353 25.47953a25.840941 25.840941 0 0 1-26.202353 25.509647h-52.404706c-14.456471 0-26.202353-11.444706-26.202353-25.509647 0-14.064941 11.745882-25.479529 26.202353-25.47953m-419.237647 0h52.404706c14.486588 0 26.202353 11.414588 26.202353 25.47953a25.840941 25.840941 0 0 1-26.202353 25.509647H279.09019566c-14.456471 0-26.202353-11.444706-26.202353-25.509647 0-14.064941 11.745882-25.479529 26.202353-25.47953"  horiz-adv-x="1024" />

    
    <glyph glyph-name="weizhi" unicode="&#58884;" d="M512-107.94933365999998S143.01733366 303.23466634 143.01733366 507.008a368.98266634 368.98266634 0 0 0 737.96533268 0C880.98266634 303.23466634 512-107.94933365999998 512-107.94933365999998zM512 752.98266634a245.97466634 245.97466634 0 1 1 0-491.99066634A245.97466634 245.97466634 0 0 1 512 752.98266634zM512 384a122.96666634 122.96666634 0 1 0 0 245.93333366A122.96666634 122.96666634 0 0 0 512 384z"  horiz-adv-x="1024" />

    
    <glyph glyph-name="arr-right" unicode="&#59116;" d="M783.06739257 385.39658854L446.48488281 747.96413737H291.19320877l336.58163086-362.56754883-336.58163086-336.56871093h155.29258253L783.06739257 385.39658854zM783.06739257 385.39658854"  horiz-adv-x="1000" />

    
    <glyph glyph-name="hezuo" unicode="&#58885;" d="M954.6846875 773.3015625C884.451875 848.263125 809.315 864 758.6571875 864 687.9875 864 628.64 834.2390625 599.290625 808.7540625c-16.6115625-14.43-39.2859375-35.7646875-64.80375-60.5325-20.56875 20.1646875-35.44125 34.3425-44.27625 42.21-66.5128125 59.19375-244.393125 114.675-373.6875-18.0328125-34.828125-35.746875-59.2190625-74.5125-72.5015625-115.2196875C32.976875 623.3109375 29.523125 587.8809375000001 33.7540625 551.86875c7.4146875-63.084375 35.8565625-109.97625 46.569375-127.625625 0.8784375-1.4484375 1.606875-2.6465625 2.158125-3.5925 20.296875-34.89 82.021875-89.76375 92.2575-98.746875l-19.378125-19.51875c-14.019375-14.11875-21.70125-32.85-21.63-52.7428125 0.075-19.895625 7.8890625-38.5734375 22.006875-52.58625 14.0475-13.95 32.68125-21.63 52.4746875-21.63 5.7075 0 11.30625 0.661875 16.730625 1.895625a76.134375 76.134375 0 0 1-0.6834375-10.3275c0.0759375-19.8965625 7.8890625-38.5753125 22.006875-52.5890625 14.0465625-13.948125 32.68125-21.63 52.4784375-21.63a75.1875 75.1875 0 0 1 13.948125 1.3125 74.6878125 74.6878125 0 0 1-0.4415625-8.30625c0.07125-19.8975 7.884375-38.57625 22.0021875-52.5871875 14.045625-13.948125 32.6859375-21.63 52.4784375-21.63 4.8328125 0 9.5953125 0.46875 14.2378125 1.3603125a75.45 75.45 0 0 1-0.4809375-8.6484375c0.07125-19.891875 7.884375-38.5696875 22.0021875-52.5890625 14.045625-13.9434375 32.685-21.6234375 52.4784375-21.6234375 13.9865625 0 27.37125 3.83625 38.97375 10.9903125l16.485-16.5234375c13.6809375-13.7353125 31.9209375-20.514375 50.713125-20.514375 21.028125 0.005625 42.751875 8.4909375 59.5490625 25.228125 19.8 19.72125 28.164375 46.321875 24.675 70.6125 3.073125-0.3759375 6.2015625-0.590625 9.3834375-0.585 1.640625 0 3.29625 0.04875 4.959375 0.15375 20.525625 1.2684375 40.2421875 10.35 55.524375 25.5759375 15.28125 15.2221875 24.440625 34.906875 25.7859375 55.4278125 0.3065625 4.6753125 0.18 9.2625-0.31875 13.7390625 2.701875-0.290625 5.435625-0.4528125 8.2125-0.4528125a81.1125 81.1125 0 0 1 4.965 0.1575c20.52 1.2675 40.2421875 10.351875 55.524375 25.5778125 19.989375 19.9125 28.5365625 46.6771875 25.1625 71.0671875 3.60375-0.511875 7.25625-0.7865625 10.93125-0.7865625 21.3403125 0 43.5 8.698125 60.675 25.8121875l0.361875 0.3675c29.596875 31.3125 30.624375 81.8540625 2.29125 110.49375l-13.4409375 14.221875c18.39375 19.6453125 56.055 60.16125 70.434375 77.805 21.1490625 25.955625 47.094375 79.1446875 50.5978125 143.6259375 2.9034375 53.47875-8.9175 133.53-81.7303125 211.243125zM179.961875 221.44781250000005c-7.605 7.5496875-11.8096875 17.60625-11.85 28.314375-0.0375 10.7184375 4.096875 20.8003125 11.6428125 28.4053125l104.956875 105.70875c7.584375 7.6434375 17.694375 11.8490625 28.4596875 11.8490625 10.655625 0 20.694375-4.134375 28.2571875-11.641875 7.605-7.550625 11.8096875-17.60625 11.8471875-28.3153125 0.039375-10.715625-4.0940625-20.8003125-11.64-28.404375l-104.956875-105.7125c-7.584375-7.63875-17.694375-11.848125-28.4596875-11.848125-10.6640625 0.0028125-20.698125 4.1371875-28.2571875 11.64375z m90.526875-82.65c-7.6003125 7.5515625-11.810625 17.604375-11.848125 28.3153125-0.0375 10.711875 4.095 20.799375 11.645625 28.3996875l104.953125 105.7125c7.5834375 7.6434375 17.6925 11.848125 28.464375 11.848125 10.6565625 0 20.6896875-4.1334375 28.250625-11.6409375 7.6059375-7.550625 11.8115625-17.60625 11.8490625-28.3153125 0.039375-10.715625-4.0959375-20.7984375-11.64-28.4053125L327.2046875 139.00312499999995c-7.584375-7.6434375-17.6925-11.8528125-28.4596875-11.8528125-10.659375 0.001875-20.694375 4.1409375-28.25625 11.6475z m87.9853125-81.2128125c-7.5984375 7.5534375-11.80875 17.6071875-11.848125 28.318125-0.0375 10.715625 4.100625 20.7975 11.6465625 28.404375l104.9521875 105.710625c7.5890625 7.63875 17.7 11.8490625 28.464375 11.8490625 10.6565625 0 20.6953125-4.1390625 28.258125-11.64375 15.6928125-15.5840625 15.7846875-41.026875 0.2015625-56.71875L415.1975 57.794062499999995c-7.59-7.644375-17.694375-11.8490625-28.4653125-11.8490625-10.6565625 0-20.6878125 4.134375-28.258125 11.64z m116.495625-93.14625c-10.6565625 0-20.6953125 4.134375-28.258125 11.645625-7.5984375 7.546875-11.80875 17.59875-11.848125 28.3153125-0.0375 10.711875 4.095 20.8003125 11.6465625 28.3996875l104.953125 105.7125c7.59 7.63875 17.694375 11.8490625 28.4653125 11.8490625 10.655625 0 20.6896875-4.134375 28.2525-11.641875 15.6975-15.583125 15.7846875-41.02875 0.20625-56.7196875l-104.9578125-105.7125c-7.584375-7.63875-17.6925-11.848125-28.4596875-11.848125z m141.46125-10.843125c-18.3834375-18.3159375-46.03875-20.47125-61.6546875-4.8l-15.133125 15.178125 66.3234375 66.79875 15.500625-15.54375c15.609375-15.6721875 13.351875-43.31625-5.03625-61.633125z m285.2934375 286.119375c-18.819375-18.579375-46.704375-21.0290625-62.259375-5.4140625l-0.1809375 0.1809375-140.8753125 133.220625-13.68-14.473125-10.4925-10.4746875 136.539375-136.726875c15.609375-15.6628125 13.0790625-43.5778125-5.63625-62.221875-9.35625-9.320625-21.2090625-14.8725-33.380625-15.6196875-11.3446875-0.7003125-21.598125 2.925-28.869375 10.2253125l-139.5403125 139.921875-24.343125-24.2746875 1.09875-1.0996875 136.3153125-141.1875 0.1865625-0.1903125c7.265625-7.29375 10.8590625-17.5565625 10.115625-28.903125-0.8034375-12.16875-6.3909375-24.0009375-15.7471875-33.324375-9.35625-9.31875-21.21375-14.866875-33.38625-15.616875-11.3446875-0.7059375-21.598125 2.925-28.869375 10.2253125l-14.8884375 14.9259375c27.856875 29.2265625 27.354375 75.6525-1.4278125 104.2265625-14.0465625 13.9490625-32.68125 21.6234375-52.47375 21.6234375-4.8496875 0-9.628125-0.470625-14.2809375-1.3659375 2.4553125 21.853125-4.696875 44.5828125-21.4828125 61.243125-14.0428125 13.9471875-32.68125 21.63-52.4746875 21.63-4.7353125 0-9.399375-0.4528125-13.948125-1.3125 0.2896875 2.739375 0.4490625 5.5125 0.4378125 8.3071875-0.07125 19.8975-7.884375 38.574375-22.003125 52.58625-14.045625 13.95-32.6840625 21.63-52.4775 21.63-5.7028125 0-11.3015625-0.66-16.7315625-1.8946875 0.459375 3.395625 0.69375 6.84375 0.6834375 10.3284375-0.07125 19.8975-7.884375 38.5734375-22.003125 52.588125-14.05125 13.948125-32.6840625 21.63-52.4775 21.63-19.9959375 0-38.765625-7.8140625-52.85625-22.006875l-66.6234375-67.10625 4.936875 5.6934375c-18.744375 16.275-70.8065625 64.396875-86.43375 91.2553125-0.63375 1.0875-1.4709375 2.4703125-2.4815625 4.1334375-67.0340625 110.49375-56.169375 216.4246875 31.434375 306.3346875 62.6746875 64.3275 134.416875 73.935 183.5596875 70.659375 65.109375-4.3359375 117.534375-31.96875 142.6425-54.3159375 8.37-7.453125 22.66875-21.0890625 42.5540625-40.5815625C417.340625 633 303.0228125 514.0453125 296.4284375 507.18375l-11.4375-11.9090625 11.4375-11.908125c3.0946875-3.22125 76.7896875-78.9534375 159.3778125-78.9534375 3.2971875 0 6.6159375 0.12 9.8578125 0.3609375 6.69375 0.3 76.396875 4.6584375 131.13375 57.3890625l82.59 76.62375 117.118125-122.071875-0.1696875-0.163125 107.653125-113.9034375 0.3121875-0.3234375c15.15-15.2053125 13.8965625-44.9775-2.5771875-62.61z m100.365 324.2128125c-3.0515625-56.2303125-25.03125-101.8209375-42.9159375-123.7725-13.0621875-16.025625-47.971875-53.660625-66.759375-73.749375L680.7921875 586.978125 573.29 487.246875l-0.2465625-0.234375c-46.575-44.949375-108.38625-47.8753125-108.96-47.896875l-0.7453125-0.0440625c-2.4646875-0.1903125-5.0025-0.2840625-7.5346875-0.2840625-50.619375 0-100.2759375 37.7175-122.48625 57.133125 47.454375 49.1653125 221.443125 228.635625 288.515625 286.87875 24.8728125 21.5971875 75.63375 46.824375 136.8234375 46.824375 63.8025 0 121.3171875-26.8575 170.941875-79.8225 64.5178125-68.8603125 75.031875-139.0875 72.4903125-185.8734375z m0 0"  horiz-adv-x="1071" />

    
    <glyph glyph-name="zhuye" unicode="&#58925;" d="M999.497836 318.447766a23.373812 23.373812 0 0 0-17.2521 7.711768L511.947142 832.631885 41.648547 326.159534a23.135304 23.135304 0 0 0-34.464448 0 27.825967 27.825967 0 0 0 0 37.12779L494.734793 888.323571a23.135304 23.135304 0 0 0 34.424697 0L1016.670433 363.327075a27.825967 27.825967 0 0 0 0-37.12779 23.373812 23.373812 0 0 0-17.212349-7.711768z m-195.060029-446.28876h-170.61293a26.315415 26.315415 0 0 0 0 52.511574h170.652681c26.871934 0 48.774945 23.572569 48.774945 52.511575V265.936191a24.4471 24.4471 0 1 0 48.774945 0v-288.754036c0-57.917763-43.72652-105.02315-97.510139-105.023149z m-414.408152 0H219.416725c-53.783619 0-97.470387 47.105387-97.470387 105.023149V475.942739a25.32163 25.32163 0 0 0 24.367597 26.235912 25.361381 25.361381 0 0 0 24.407348-26.235912v-498.760584c0-28.939006 21.86326-52.511575 48.735193-52.511575H365.781312v236.282212a25.361381 25.361381 0 0 0 24.367597 26.235912h243.755471a26.315415 26.315415 0 0 0 0-52.511575h-219.427626V-101.764088a25.361381 25.361381 0 0 0-24.407348-26.235912z m0 0"  horiz-adv-x="1024" />

    
    <glyph glyph-name="you" unicode="&#58942;" d="M32 351.744C32 87.03999999999996 247.04-128 512.256-128s480.256 215.04 480.256 480.256S777.472 832.512 512.256 832.512 32 616.96 32 351.744z m64 0C96 581.6320000000001 282.88 768 512.256 768S928 581.12 928 351.744 741.632-64.51199999999994 511.744-64.51199999999994 96 122.88 96 351.744zM426.752 137.72799999999995c-12.288 12.288-12.288 32.768 0 45.056l168.96 168.96-169.984 169.984c-12.288 12.288-12.288 32.768 0 45.056 12.288 12.288 32.768 12.288 45.056 0L663.808 373.76c5.632-6.144 8.704-13.824 8.704-21.504h1.024-1.024 0.512H672h0.512H672c0-7.68-2.56-15.36-8.704-21.504h0.512L472.32 137.72799999999995c-6.144-6.144-14.336-9.216-22.528-9.216-8.704 0-16.896 3.072-23.04 9.216z"  horiz-adv-x="1024" />

    
    <glyph glyph-name="dianhua" unicode="&#59051;" d="M682.25 430.738c0-16.695 11.115-27.811 27.81-27.811s27.812 11.116 27.812 27.811A167.395 167.395 0 0 1 570.96 597.65c-16.695 0-27.811-11.116-27.811-27.811s11.16-27.812 27.811-27.812a111.597 111.597 0 0 0 111.29-111.289z m111.289 0c0-16.695 11.115-27.811 27.81-27.811s27.812 11.116 27.812 27.811c0 152.984-125.217 278.201-278.2 278.201-16.696 0-27.812-11.16-27.812-27.855s11.16-27.811 27.811-27.811c122.405 0 222.579-100.174 222.579-222.535zM417.976 528.1c30.623 30.579 33.391 77.898 5.58 111.289L337.31 747.866c-27.811 36.16-80.666 41.74-116.869 13.928-2.768-2.812-5.536-2.812-5.536-5.58l-75.13-75.13c-72.318-72.318 30.623-267.041 217.042-453.417C543.15 41.292 735.06-58.88 807.378 10.67l75.13 75.13c33.392 33.391 33.392 86.246 0 116.825l-5.536 5.58-108.52 86.246c-33.348 27.81-80.623 25.043-111.246-5.58l-47.275-47.319c-50.087 30.623-94.593 64.014-133.564 102.941-38.927 38.971-72.275 83.478-102.898 133.565l44.507 50.043z m-38.927 75.13c8.348-11.16 8.348-27.855-2.812-36.203l-61.202-63.97a29.569 29.569 0 0 1-5.536-33.392 721.425 721.425 0 0 1 122.405-164.1 721.512 721.512 0 0 1 164.1-122.405 29.569 29.569 0 0 1 33.39 5.58l63.971 63.97c11.16 11.116 25.043 11.116 36.203 2.769l108.477-89.014s2.768 0 2.768-2.768a26.889 26.889 0 0 0 0-38.971l-75.13-75.13c-36.115-36.115-208.606 55.666-372.75 217.042-164.1 161.332-253.114 336.548-216.955 372.75l77.854 77.899c11.16 8.348 30.623 8.348 38.971-5.58l86.246-108.521z"  horiz-adv-x="1024" />

    
    <glyph glyph-name="yanjing" unicode="&#58881;" d="M996.864 373.76c0-97.28-199.68-307.2-486.912-307.2-276.48 0-486.912 204.8-486.912 307.2s209.92 307.2 486.912 307.2c286.72 0.512 486.912-204.288 486.912-307.2zM509.952 625.152c-128 0-235.52-112.64-235.52-250.88s102.4-250.88 235.52-250.88c128 0 235.52 112.64 235.52 250.88s-107.52 250.88-235.52 250.88zM509.952 532.992c-81.92 0-148.48-71.68-148.48-158.72s66.56-158.72 148.48-158.72 148.48 71.68 148.48 158.72-66.56 158.72-148.48 158.72z"  horiz-adv-x="1024" />

    
    <glyph glyph-name="shuxie" unicode="&#58882;" d="M730.112 111.057455h-105.984a32.535273 32.535273 0 0 1-32.395636-32.581819v-0.186181c0-18.059636 14.429091-32.674909 32.395636-32.67491h105.984a32.535273 32.535273 0 0 1 32.442182 32.721455 32.535273 32.535273 0 0 1-32.302546 32.721455h-0.139636z m-244.689455 0H117.899636a32.535273 32.535273 0 0 1-32.395636-32.581819v-0.186181c0-18.059636 14.475636-32.674909 32.395636-32.67491h367.476364a32.535273 32.535273 0 0 1 32.395636 32.721455 32.535273 32.535273 0 0 1-32.302545 32.721455h-0.093091 0.046545z m387.072 554.914909l-70.702545 71.447272 70.749091-71.447272z m-110.312727-766.231273H170.542545a105.890909 105.890909 0 0 0-105.192727 106.263273V751.895273c0 58.554182 47.197091 106.216727 105.192727 106.216727h452.747637c17.92 0 32.395636-14.661818 32.395636-32.768 0-18.059636-14.429091-32.674909-32.395636-32.674909H170.496a40.634182 40.634182 0 0 1-40.401455-40.773818v-745.890909c0-22.481455 18.152727-40.820364 40.494546-40.820364h591.592727a40.634182 40.634182 0 0 1 40.494546 40.820364V436.875636c0 18.152727 14.429091 32.768 32.349091 32.768a32.581818 32.581818 0 0 0 32.395636-32.768v-431.010909a105.844364 105.844364 0 0 0-105.192727-106.123636zM939.426909 809.425455l-42.356364 42.728727c-25.925818 26.158545-70.283636 23.877818-99.002181-5.12L412.113455 457.122909 333.730909 240.45381799999996l214.528 78.987637 386.001455 389.864727c13.032727 13.218909 21.131636 30.254545 22.807272 47.988363 2.094545 19.130182-4.421818 38.167273-17.733818 52.084364z m-426.728727-433.338182l-70.330182-25.879273 25.6 71.074909 285.882182 288.768 44.218182-45.521454-285.323637-288.488728z m375.808 379.531636l-44.544-45.056-44.218182 45.521455 44.218182 44.590545c3.351273 3.351273 6.609455 4.235636 8.145454 4.235636l40.680728-41.006545a14.522182 14.522182 0 0 0-4.282182-8.285091z"  horiz-adv-x="1024" />

    


  </font>
</defs>
</svg>
